<svg xmlns="http://www.w3.org/2000/svg" width="228" height="131" viewBox="0 0 228 131">
  <metadata><?xpacket begin="﻿" id="W5M0MpCehiHzreSzNTczkc9d"?>
<x:xmpmeta xmlns:x="adobe:ns:meta/" x:xmptk="Adobe XMP Core 5.6-c142 79.160924, 2017/07/13-01:06:39        ">
   <rdf:RDF xmlns:rdf="http://www.w3.org/1999/02/22-rdf-syntax-ns#">
      <rdf:Description rdf:about=""/>
   </rdf:RDF>
</x:xmpmeta>
                                                                                                    
                                                                                                    
                                                                                                    
                                                                                                    
                                                                                                    
                                                                                                    
                                                                                                    
                                                                                                    
                                                                                                    
                                                                                                    
                                                                                                    
                                                                                                    
                                                                                                    
                                                                                                    
                                                                                                    
                                                                                                    
                                                                                                    
                                                                                                    
                                                                                                    
                                                                                                    
                           
<?xpacket end="w"?></metadata>
<defs>
    <style>
      .cls-1 {
        fill: #222;
        fill-rule: evenodd;
      }
    </style>
  </defs>
  <path id="Macbook_Pro" data-name="Macbook Pro" class="cls-1" d="M1314.64,6409.7h-21.08a6.627,6.627,0,0,0,.38-2.24V6292.9a6.912,6.912,0,0,0-6.92-6.9H1115.01a6.912,6.912,0,0,0-6.92,6.9v114.56a6.627,6.627,0,0,0,.38,2.24h-21.11a0.359,0.359,0,0,0-.36.36v3.52a0.687,0.687,0,0,0,.26.59c0.06,0.05.13,0.1,0.2,0.15h0a19.467,19.467,0,0,0,9.93,2.68h207.22a19.467,19.467,0,0,0,9.93-2.68h0c0.09-.06.17-0.13,0.25-0.19a0.6,0.6,0,0,0,.21-0.5v-3.57A0.372,0.372,0,0,0,1314.64,6409.7Zm-206.07-2.24V6292.9a6.438,6.438,0,0,1,6.44-6.42h172.01a6.438,6.438,0,0,1,6.44,6.42v114.56a6.147,6.147,0,0,1-.41,2.24h-18.83l-0.02-.1-0.56-2.5h16.79a2.39,2.39,0,0,0,2.39-2.39v-111.9a5.712,5.712,0,0,0-5.71-5.7H1114.92a5.712,5.712,0,0,0-5.71,5.7v111.9a2.39,2.39,0,0,0,2.39,2.39h16.24l-0.56,2.5-0.03.1h-18.27A6.147,6.147,0,0,1,1108.57,6407.46Zm76.3,2.24h-57.12l0.58-2.58h144.82l0.58,2.58h-88.86Zm31.76,0.48a2.511,2.511,0,0,1-2.25,2.09h-26.76a2.532,2.532,0,0,1-2.25-2.09h31.26Zm-105.03-3.55a1.918,1.918,0,0,1-1.91-1.92v-111.9a5.226,5.226,0,0,1,5.23-5.22h172.19a5.226,5.226,0,0,1,5.23,5.22v111.9a1.918,1.918,0,0,1-1.91,1.92H1111.6Zm-24.12,3.55h97.41a2.984,2.984,0,0,0,2.73,2.56h26.76a2.984,2.984,0,0,0,2.73-2.56h97.41v3.45a0.184,0.184,0,0,1-.02.12,1.923,1.923,0,0,1-.17.13H1087.67l-0.12-.09a0.2,0.2,0,0,1-.07-0.21v-3.4Zm217.13,6.34H1097.39a19.824,19.824,0,0,1-8.93-2.16h225.08A19.824,19.824,0,0,1,1304.61,6416.52Zm-17.08-123.11H1114.34a0.6,0.6,0,0,0-.6.6v108.05a0.6,0.6,0,0,0,.6.6h173.19a0.6,0.6,0,0,0,.6-0.6V6294.01A0.6,0.6,0,0,0,1287.53,6293.41Zm0,108.65H1114.34V6294.01h173.19v108.05Zm-86.48-110.31a0.955,0.955,0,1,0-.96-0.96A0.96,0.96,0,0,0,1201.05,6291.75Zm0-1.44a0.487,0.487,0,0,1,.48.48,0.48,0.48,0,0,1-.48.48,0.474,0.474,0,0,1-.48-0.48A0.48,0.48,0,0,1,1201.05,6290.31Zm-35.51,125.93h0a0.615,0.615,0,0,0,.14-0.01,1.258,1.258,0,0,0,1.15-.36,0.311,0.311,0,0,0-.06-0.34,2.671,2.671,0,0,0-1.44-.32h-0.14a1.267,1.267,0,0,0-1.15.37,0.292,0.292,0,0,0,.06.33A2.6,2.6,0,0,0,1165.54,6416.24Zm70.5-.01a0.66,0.66,0,0,0,.14.01,2.631,2.631,0,0,0,1.45-.33,0.331,0.331,0,0,0,.06-0.33,1.281,1.281,0,0,0-1.15-.37h-0.15a2.671,2.671,0,0,0-1.44.32,0.311,0.311,0,0,0-.06.34A1.271,1.271,0,0,0,1236.04,6416.23Zm78.6-6.53h-21.08a6.627,6.627,0,0,0,.38-2.24V6292.9a6.912,6.912,0,0,0-6.92-6.9H1115.01a6.912,6.912,0,0,0-6.92,6.9v114.56a6.627,6.627,0,0,0,.38,2.24h-21.11a0.359,0.359,0,0,0-.36.36v3.52a0.687,0.687,0,0,0,.26.59c0.06,0.05.13,0.1,0.2,0.15h0a19.467,19.467,0,0,0,9.93,2.68h207.22a19.467,19.467,0,0,0,9.93-2.68h0c0.09-.06.17-0.13,0.25-0.19a0.6,0.6,0,0,0,.21-0.5v-3.57A0.372,0.372,0,0,0,1314.64,6409.7Zm-206.07-2.24V6292.9a6.438,6.438,0,0,1,6.44-6.42h172.01a6.438,6.438,0,0,1,6.44,6.42v114.56a6.147,6.147,0,0,1-.41,2.24h-18.83l-0.02-.1-0.56-2.5h16.79a2.39,2.39,0,0,0,2.39-2.39v-111.9a5.712,5.712,0,0,0-5.71-5.7H1114.92a5.712,5.712,0,0,0-5.71,5.7v111.9a2.39,2.39,0,0,0,2.39,2.39h16.24l-0.56,2.5-0.03.1h-18.27A6.147,6.147,0,0,1,1108.57,6407.46Zm76.3,2.24h-57.12l0.58-2.58h144.82l0.58,2.58h-88.86Zm31.76,0.48a2.511,2.511,0,0,1-2.25,2.09h-26.76a2.532,2.532,0,0,1-2.25-2.09h31.26Zm-105.03-3.55a1.918,1.918,0,0,1-1.91-1.92v-111.9a5.226,5.226,0,0,1,5.23-5.22h172.19a5.226,5.226,0,0,1,5.23,5.22v111.9a1.918,1.918,0,0,1-1.91,1.92H1111.6Zm-24.12,3.55h97.41a2.984,2.984,0,0,0,2.73,2.56h26.76a2.984,2.984,0,0,0,2.73-2.56h97.41v3.45a0.184,0.184,0,0,1-.02.12,1.923,1.923,0,0,1-.17.13H1087.67l-0.12-.09a0.2,0.2,0,0,1-.07-0.21v-3.4Zm217.13,6.34H1097.39a19.824,19.824,0,0,1-8.93-2.16h225.08A19.824,19.824,0,0,1,1304.61,6416.52Zm-17.08-123.11H1114.34a0.6,0.6,0,0,0-.6.6v108.05a0.6,0.6,0,0,0,.6.6h173.19a0.6,0.6,0,0,0,.6-0.6V6294.01A0.6,0.6,0,0,0,1287.53,6293.41Zm0,108.65H1114.34V6294.01h173.19v108.05Zm-86.48-110.31a0.955,0.955,0,1,0-.96-0.96A0.96,0.96,0,0,0,1201.05,6291.75Zm0-1.44a0.487,0.487,0,0,1,.48.48,0.48,0.48,0,0,1-.48.48,0.474,0.474,0,0,1-.48-0.48A0.48,0.48,0,0,1,1201.05,6290.31Zm-35.51,125.93h0a0.615,0.615,0,0,0,.14-0.01,1.258,1.258,0,0,0,1.15-.36,0.311,0.311,0,0,0-.06-0.34,2.671,2.671,0,0,0-1.44-.32h-0.14a1.267,1.267,0,0,0-1.15.37,0.292,0.292,0,0,0,.06.33A2.6,2.6,0,0,0,1165.54,6416.24Zm70.5-.01a0.66,0.66,0,0,0,.14.01,2.631,2.631,0,0,0,1.45-.33,0.331,0.331,0,0,0,.06-0.33,1.281,1.281,0,0,0-1.15-.37h-0.15a2.671,2.671,0,0,0-1.44.32,0.311,0.311,0,0,0-.06.34A1.271,1.271,0,0,0,1236.04,6416.23Z" transform="translate(-1087 -6286)"/>
</svg>
